<?xml version="1.0" standalone="no"?>
<!DOCTYPE svg PUBLIC "-//W3C//DTD SVG 20010904//EN"
 "http://www.w3.org/TR/2001/REC-SVG-20010904/DTD/svg10.dtd">
<svg version="1.0" xmlns="http://www.w3.org/2000/svg"
 width="1920.000000pt" height="1920.000000pt" viewBox="0 0 1920.000000 1920.000000"
 preserveAspectRatio="xMidYMid meet">
<metadata>
Created by potrace 1.14, written by Peter Selinger 2001-2017
</metadata>
<g transform="translate(0.000000,1920.000000) scale(0.100000,-0.100000)"
fill="#000000" stroke="none">
<path d="M9090 12499 c-593 -78 -1126 -272 -1580 -574 -633 -421 -1040 -999
-1159 -1646 -59 -319 -46 -631 40 -974 66 -261 253 -615 460 -872 150 -187
420 -429 649 -583 247 -166 620 -345 878 -421 l42 -12 0 -293 0 -293 118 -69
c199 -117 764 -442 768 -442 2 0 4 863 4 1918 0 2124 4 1986 -67 2131 -63 127
-139 193 -384 332 -112 64 -295 169 -405 233 l-202 116 -223 -129 c-123 -71
-225 -133 -226 -138 -2 -5 56 -43 129 -84 73 -42 213 -122 311 -178 l177 -103
0 -1240 0 -1240 -47 28 c-454 263 -808 678 -987 1157 -147 392 -170 897 -61
1326 155 614 591 1134 1207 1443 106 52 124 58 145 49 14 -6 157 -88 318 -181
161 -94 298 -170 304 -170 8 0 11 137 11 465 l0 465 -37 -1 c-21 0 -103 -9
-183 -20z"/>
<path d="M9890 12055 c0 -328 3 -465 11 -465 6 0 143 76 304 170 161 93 304
175 318 181 21 9 39 3 145 -49 549 -275 954 -716 1148 -1250 144 -396 167
-869 64 -1299 -135 -561 -525 -1071 -1052 -1377 l-48 -28 0 1240 0 1240 178
103 c97 56 237 136 310 178 73 41 131 79 129 84 -1 5 -103 68 -226 138 l-223
129 -202 -116 c-110 -64 -293 -169 -406 -233 -244 -138 -320 -205 -383 -332
-71 -145 -67 -7 -67 -2131 0 -1055 2 -1918 4 -1918 3 0 613 351 814 468 l72
43 0 293 0 293 43 12 c97 29 321 117 442 175 345 164 633 365 886 616 157 156
228 242 345 415 230 341 352 694 384 1108 23 294 -29 647 -136 918 -198 505
-554 931 -1054 1264 -459 306 -993 499 -1593 575 -87 11 -169 20 -182 20 l-25
0 0 -465z"/>
</g>
</svg>
